<?xml version="1.0" encoding="iso-8859-1"?>
<!-- Generator: Adobe Illustrator 19.0.0, SVG Export Plug-In . SVG Version: 6.00 Build 0)  -->
<svg version="1.1" id="Layer_1" xmlns="http://www.w3.org/2000/svg" xmlns:xlink="http://www.w3.org/1999/xlink" x="0px" y="0px"
	 viewBox="0 0 502 502" style="enable-background:new 0 0 502 502;" xml:space="preserve">
<g>
	<rect x="49" y="112.5" style="fill:#4FC497;" width="72" height="341"/>
	<rect x="215" y="207.5" style="fill:#4FC497;" width="72" height="246"/>
	<rect x="381" y="283.5" style="fill:#4FC497;" width="72" height="170"/>
	<g>
		<path style="fill:#333333;" d="M492,463.5c5.523,0,10-4.478,10-10s-4.477-10-10-10h-29v-160c0-5.522-4.477-10-10-10h-72
			c-5.523,0-10,4.478-10,10v160h-74v-236c0-5.522-4.477-10-10-10h-72c-5.523,0-10,4.478-10,10v236h-74v-331c0-5.522-4.477-10-10-10
			H49c-5.523,0-10,4.478-10,10v331H10c-5.523,0-10,4.478-10,10s4.477,10,10,10H492z M59,443.5v-321h52v321H59z M225,443.5v-226h52
			v226H225z M391,443.5v-150h52v150H391z"/>
		<path style="fill:#333333;" d="M377,230.5h26c5.523,0,10-4.478,10-10s-4.477-10-10-10h-26c-5.523,0-10,4.478-10,10
			S371.477,230.5,377,230.5z"/>
		<path style="fill:#333333;" d="M47,58.5h74.727l85.049,88.912c1.887,1.973,4.498,3.088,7.227,3.088h69.196l58.155,51.693
			c1.905,1.694,4.277,2.526,6.64,2.526c2.757,0,5.502-1.134,7.478-3.356c3.669-4.128,3.297-10.448-0.831-14.117l-60.997-54.22
			c-1.831-1.628-4.194-2.526-6.644-2.526h-68.725l-85.049-88.912C131.34,39.615,128.729,38.5,126,38.5H47c-5.523,0-10,4.478-10,10
			S41.477,58.5,47,58.5z"/>
		<path style="fill:#333333;" d="M412.865,203.261l25.64,17.489l-25.64,17.489c-4.563,3.111-5.739,9.333-2.626,13.896
			c1.936,2.839,5.075,4.366,8.27,4.366c1.941,0,3.902-0.563,5.626-1.74l37.5-25.579c2.887-1.968,4.413-5.181,4.36-8.432
			c0.053-3.25-1.474-6.463-4.36-8.432l-37.5-25.579c-4.562-3.114-10.784-1.938-13.896,2.626
			C407.126,193.928,408.302,200.149,412.865,203.261z"/>
		<path style="fill:#333333;" d="M79,154.5c-5.523,0-10,4.478-10,10v28c0,5.522,4.477,10,10,10s10-4.478,10-10v-28
			C89,158.978,84.523,154.5,79,154.5z"/>
		<path style="fill:#333333;" d="M79,221.5c-5.523,0-10,4.478-10,10v195c0,5.522,4.477,10,10,10s10-4.478,10-10v-195
			C89,225.978,84.523,221.5,79,221.5z"/>
	</g>
</g>
<g>
</g>
<g>
</g>
<g>
</g>
<g>
</g>
<g>
</g>
<g>
</g>
<g>
</g>
<g>
</g>
<g>
</g>
<g>
</g>
<g>
</g>
<g>
</g>
<g>
</g>
<g>
</g>
<g>
</g>
</svg>
